# xmcd
# 
# Track frame offsets:
#     150
#     22049
#     43215
#     50788
#     75296
#     101213
#     125402
#     144915
#     166696
#     191235
# 
# Disc length: 2899
# 
# Revision: 1
# Processed by: cddbd v1.5.2PL0 Copyright (c) Steve Scherf et al.
# Submitted via: BonkEnc v1.0
# 
DISCID=860b510a
DTITLE=リラクシング・ピアノ - リラクシング・ピアノ〜宮崎駿コレクション
DYEAR=0
DGENRE=Anime
TTITLE0=いつも何度でも〜「千と千尋の神隠し」より
TTITLE1=海の見える街〜「魔女の宅急便」より
TTITLE2=もののけ姫〜「もののけ姫」より
TTITLE3=風のとおり道〜「たなりのトトロ」より
TTITLE4=時には昔の話を〜「紅の豚」より
TTITLE5=やさしさに包まれたなら〜「魔女の宅急便」より
TTITLE6=となりのトトロ〜「となりのトトロ」より
TTITLE7=風の谷のナウシカ〜「風の谷のナウシカ」より
TTITLE8=君をのせて〜「天空の城ラピュタ」より
TTITLE9=いのちの名前〜「千と千尋の神隠し」より
EXTD=
EXTT0=
EXTT1=
EXTT2=
EXTT3=
EXTT4=
EXTT5=
EXTT6=
EXTT7=
EXTT8=
EXTT9=
PLAYORDER=
